<svg xmlns="http://www.w3.org/2000/svg" width="79.974" height="79.974" viewBox="0 0 79.974 79.974">
  <g id="Grupo_742" data-name="Grupo 742" transform="translate(-28.533 -34.171)">
    <path id="Trazado_872" data-name="Trazado 872" d="M1462.68,468.741a39.987,39.987,0,1,1-40-39.974,39.987,39.987,0,0,1,40,39.974" transform="translate(-1354.173 -394.596)"/>
    <path id="Trazado_873" data-name="Trazado 873" d="M1462.441,485.262a4.31,4.31,0,1,1-4.309-4.155,4.234,4.234,0,0,1,4.309,4.155" transform="translate(-1399.692 -428.096)" fill="#e21f28"/>
    <path id="Trazado_874" data-name="Trazado 874" d="M1465.524,528.067a23.3,23.3,0,0,1-.176-2.868l0-11.53a5.179,5.179,0,0,0-.942-3.243,6.539,6.539,0,0,0-2.435-1.9,11.361,11.361,0,0,0-3.287-.92,27.783,27.783,0,0,0-3.572-.239,19.582,19.582,0,0,0-3.839.376,11.038,11.038,0,0,0-3.452,1.218,7.563,7.563,0,0,0-1.953,1.557l.906-2.549-6.358,0-4.911,15.139h-.076l-4.922-15.135-18.479.006-4.9,15.138h-.089l-4.917-15.135-6.708,0,7.977,22.162,7.118,0,7.377-20.774.007,20.781,6.4,0-.007-20.8,7.492,20.792,7.114,0,5.453-15.343,6.222,0a3.451,3.451,0,0,1,1.257-2.569,5.129,5.129,0,0,1,2.987-.766,12.036,12.036,0,0,1,1.593.1,3.806,3.806,0,0,1,1.314.429,2.4,2.4,0,0,1,.892.895,3.082,3.082,0,0,1,.343,1.57,1.615,1.615,0,0,1-.579,1.439,4.567,4.567,0,0,1-1.719.755,23.079,23.079,0,0,1-2.483.39c-.94.085-1.874.192-2.835.338a24.779,24.779,0,0,0-2.87.579,8.052,8.052,0,0,0-2.522,1.094,5.54,5.54,0,0,0-1.8,1.947,6.22,6.22,0,0,0-.7,3.107,6.762,6.762,0,0,0,.609,2.954,5.689,5.689,0,0,0,1.7,2.06,7.3,7.3,0,0,0,2.524,1.194,12.179,12.179,0,0,0,3.119.385,15.2,15.2,0,0,0,4.233-.6,8.445,8.445,0,0,0,3.611-2.092,8.69,8.69,0,0,0,.159,1.082,3.827,3.827,0,0,0,.473,1.126l6.293-.07a5.093,5.093,0,0,1-.633-2.069m-6.573-6.5a11.64,11.64,0,0,1-.113,1.367,4.485,4.485,0,0,1-.607,1.7,4.054,4.054,0,0,1-1.538,1.43,5.9,5.9,0,0,1-2.925.611,8.212,8.212,0,0,1-1.492-.13,3.991,3.991,0,0,1-1.262-.453,2.356,2.356,0,0,1-.865-.884,2.718,2.718,0,0,1-.313-1.364,2.881,2.881,0,0,1,.312-1.42,2.935,2.935,0,0,1,.83-.918,4.623,4.623,0,0,1,1.228-.58,11.644,11.644,0,0,1,1.419-.34c.508-.094,1.028-.161,1.546-.226.5-.046.993-.121,1.468-.21a10,10,0,0,0,1.292-.319,2.959,2.959,0,0,0,1.019-.535Z" transform="translate(-1362.359 -444.81)" fill="#ffe700"/>
    <path id="Trazado_875" data-name="Trazado 875" d="M1407.131,586.2v-.012a2.146,2.146,0,0,1,2.2-2.185,2.178,2.178,0,0,1,1.665.651l-.591.681a1.56,1.56,0,0,0-1.08-.476,1.251,1.251,0,0,0-1.224,1.315v.012a1.254,1.254,0,0,0,1.225,1.326,1.526,1.526,0,0,0,1.11-.495l.591.6a2.156,2.156,0,0,1-1.731.754,2.131,2.131,0,0,1-2.167-2.17" transform="translate(-1369.913 -493.989)" fill="#fff"/>
    <path id="Trazado_876" data-name="Trazado 876" d="M1419.323,584.2h3.184v.826h-2.261v.856h1.99v.826h-1.99v.887h2.292v.826h-3.215Z" transform="translate(-1377.62 -494.118)" fill="#fff"/>
    <path id="Trazado_877" data-name="Trazado 877" d="M1429.839,584.2h.856l1.979,2.6v-2.6h.917v4.222h-.791l-2.045-2.684v2.684h-.917Z" transform="translate(-1384.353 -494.115)" fill="#fff"/>
    <path id="Trazado_878" data-name="Trazado 878" d="M1442.824,585.049h-1.285v-.857h3.5v.857h-1.285v3.366h-.929Z" transform="translate(-1391.845 -494.113)" fill="#fff"/>
    <path id="Trazado_879" data-name="Trazado 879" d="M1452.529,584.19h1.93a1.681,1.681,0,0,1,1.231.429,1.323,1.323,0,0,1,.361.964v.012a1.311,1.311,0,0,1-.9,1.309l1.032,1.507h-1.086l-.905-1.35h-.73v1.351h-.929Zm1.871,2.051c.452,0,.712-.242.711-.6v-.012c0-.4-.277-.6-.73-.6h-.923v1.212Z" transform="translate(-1398.882 -494.111)" fill="#fff"/>
    <path id="Trazado_880" data-name="Trazado 880" d="M1463.418,586.178v-.012a2.245,2.245,0,0,1,4.488-.014v.012a2.245,2.245,0,0,1-4.488.013m3.518,0v-.012a1.284,1.284,0,0,0-1.279-1.327,1.263,1.263,0,0,0-1.267,1.316v.012a1.283,1.283,0,0,0,1.28,1.326,1.263,1.263,0,0,0,1.267-1.315" transform="translate(-1405.851 -493.977)" fill="#fff"/>
    <path id="Trazado_881" data-name="Trazado 881" d="M1481.226,586.173v-.012a2.146,2.146,0,0,1,2.2-2.185,2.179,2.179,0,0,1,1.666.651l-.591.682a1.557,1.557,0,0,0-1.08-.476,1.251,1.251,0,0,0-1.224,1.315v.012a1.254,1.254,0,0,0,1.225,1.327,1.529,1.529,0,0,0,1.11-.495l.591.6a2.156,2.156,0,0,1-1.73.755,2.131,2.131,0,0,1-2.167-2.17" transform="translate(-1417.256 -493.973)" fill="#fff"/>
    <path id="Trazado_882" data-name="Trazado 882" d="M1492.554,586.169v-.012a2.245,2.245,0,0,1,4.488-.013v.012a2.245,2.245,0,0,1-4.488.013m3.517,0v-.012a1.283,1.283,0,0,0-1.279-1.327,1.263,1.263,0,0,0-1.267,1.316v.012a1.282,1.282,0,0,0,1.279,1.326,1.262,1.262,0,0,0,1.266-1.315" transform="translate(-1424.506 -493.972)" fill="#fff"/>
    <path id="Trazado_883" data-name="Trazado 883" d="M1506.647,584.171h1l1.111,1.785,1.109-1.786h1l0,4.223h-.922v-2.757l-1.187,1.8h-.025l-1.176-1.785v2.739h-.911Z" transform="translate(-1433.531 -494.098)" fill="#fff"/>
    <path id="Trazado_884" data-name="Trazado 884" d="M1520.52,584.167h3.185v.827h-2.262v.856h1.99v.827h-1.99v.887h2.292v.826h-3.215Z" transform="translate(-1442.422 -494.096)" fill="#fff"/>
    <path id="Trazado_885" data-name="Trazado 885" d="M1531.034,584.165h1.93a1.682,1.682,0,0,1,1.231.428,1.323,1.323,0,0,1,.362.965v.012a1.312,1.312,0,0,1-.9,1.309l1.032,1.507H1533.6l-.9-1.351h-.73v1.351h-.929Zm1.871,2.05c.452,0,.712-.241.712-.6v-.012c0-.4-.277-.6-.73-.6h-.923v1.212Z" transform="translate(-1449.151 -494.095)" fill="#fff"/>
    <path id="Trazado_886" data-name="Trazado 886" d="M1541.924,586.153v-.012a2.146,2.146,0,0,1,2.2-2.184,2.179,2.179,0,0,1,1.666.651l-.591.682a1.556,1.556,0,0,0-1.079-.476,1.251,1.251,0,0,0-1.225,1.315v.012a1.255,1.255,0,0,0,1.226,1.327,1.527,1.527,0,0,0,1.11-.495l.591.6a2.157,2.157,0,0,1-1.731.755,2.132,2.132,0,0,1-2.167-2.171" transform="translate(-1456.122 -493.961)" fill="#fff"/>
    <rect id="Rectángulo_292" data-name="Rectángulo 292" width="0.929" height="4.223" transform="translate(90.204 90.067)" fill="#fff"/>
    <path id="Trazado_887" data-name="Trazado 887" d="M1559.76,584.071h.857l1.812,4.252h-.971l-.386-.947h-1.786l-.386.947h-.947Zm.978,2.484-.561-1.369-.56,1.37Z" transform="translate(-1466.379 -494.035)" fill="#fff"/>
    <path id="Trazado_888" data-name="Trazado 888" d="M1571.517,584.153h.929v3.378h2.105v.844h-3.034Z" transform="translate(-1474.977 -494.088)" fill="#fff"/>
  </g>
</svg>
